<?xml version="1.0" encoding="UTF-8" standalone="no"?>
<svg xmlns="http://www.w3.org/2000/svg" version="1.1" width="300" height="87" viewBox="0 0 300 87">
  <g transform="matrix(1.25,0,0,-1.25,-356.2181,895.7297)">
    <g transform="matrix(1.8300314,0,0,1.8300314,-336.14156,-566.03538)">
      <g clip-path="url(#cp)">
        <g transform="translate(358.3301,681.9383)">
          <path d="m 0,0 -5.339,5.339 -0.195,0.203 c -3.062,3.062 -8.035,3.07 -11.097,0.007 -3.063,-3.062 -3.063,-8.027 0,-11.09 3.062,-3.062 8.028,-3.062 11.091,0.001 L 0,0 z" fill="#fff"/>
        </g>
        <g transform="translate(358.331,681.9437)">
          <path d="m 0,0 0,-7.55 0.006,-0.282 c 0,-4.331 -3.511,-7.852 -7.842,-7.852 -4.331,0 -7.842,3.511 -7.842,7.842 0,4.331 3.512,7.842 7.843,7.842 L 0,0 z" fill="#fff"/>
        </g>
        <g transform="translate(358.331,681.9437)">
          <path d="m 0,0 0,-7.55 0.006,-0.282 c 0,-4.331 -3.511,-7.852 -7.842,-7.852 -4.331,0 -7.842,3.511 -7.842,7.842 0,4.331 3.512,7.842 7.843,7.842 L 0,0 z" fill="#fff"/>
        </g>
        <g transform="translate(358.331,681.9437)">
          <path d="m 0,0 0,-7.55 0.006,-0.282 c 0,-4.331 -3.511,-7.852 -7.842,-7.852 -4.331,0 -7.842,3.511 -7.842,7.842 0,0.476 0.042,0.942 0.123,1.394 3.058,-2.123 7.289,-1.823 10.014,0.902 l 5.54,5.541 L 0,0 z" fill="#fff"/>
        </g>
        <g transform="translate(350.495,680.948)">
          <path class="petal-g" d="m 0,0 c -3.781,0 -6.846,-3.065 -6.846,-6.846 0,-3.782 3.065,-6.847 6.846,-6.847 3.781,0 6.846,3.065 6.846,6.847 L 6.84,-6.555 6.84,0 0.016,0 0,0 z" fill="#8bdc01"/>
        </g>
        <g transform="translate(358.3313,681.9446)">
          <path d="m 0,0 5.339,-5.339 0.203,-0.195 c 3.063,-3.062 3.07,-8.035 0.007,-11.097 -3.062,-3.063 -8.027,-3.063 -11.09,0 -3.062,3.062 -3.062,8.028 0.001,11.091 L 0,0 z" fill="#fff"/>
        </g>
        <g transform="translate(353.4945,675.6996)">
          <path class="petal-g" d="m 0,0 c -2.674,-2.674 -2.674,-7.009 0,-9.682 2.674,-2.674 7.009,-2.674 9.682,0 2.674,2.673 2.674,7.008 0,9.682 L 9.472,0.202 4.837,4.837 0.012,0.011 0,0 z" fill="#8bdc01"/>
        </g>
        <g transform="translate(358.331,681.9454)">
          <path d="m 0,0 7.55,0 0.282,0.006 c 4.331,0 7.852,-3.511 7.852,-7.842 0,-4.331 -3.511,-7.842 -7.842,-7.842 C 3.511,-15.678 0,-12.166 0,-7.835 L 0,0 z" fill="#fff"/>
        </g>
        <g transform="translate(359.3267,674.1094)">
          <path class="petal-g" d="m 0,0 c 0,-3.781 3.065,-6.846 6.846,-6.846 3.782,0 6.847,3.065 6.847,6.846 0,3.781 -3.065,6.846 -6.847,6.846 L 6.554,6.84 0,6.84 0,0.016 0,0 z" fill="#8bdc01"/>
        </g>
        <g transform="translate(358.3302,681.9457)">
          <path d="m 0,0 5.339,5.339 0.195,0.203 c 3.062,3.062 8.035,3.07 11.097,0.007 3.063,-3.062 3.063,-8.027 0,-11.09 C 13.569,-8.603 8.603,-8.603 5.54,-5.54 L 0,0 z" fill="#fff"/>
        </g>
        <g transform="translate(364.5751,677.1089)">
          <path class="petal-g" d="m 0,0 c 2.674,-2.674 7.009,-2.674 9.682,0 2.674,2.674 2.674,7.009 0,9.682 -2.673,2.674 -7.008,2.674 -9.682,0 L -0.202,9.471 -4.837,4.837 -0.011,0.011 0,0 z" fill="#8bdc01"/>
        </g>
        <g transform="translate(358.3293,681.9454)">
          <path d="m 0,0 0,7.55 -0.006,0.282 c 0,4.331 3.511,7.852 7.842,7.852 4.331,0 7.842,-3.511 7.842,-7.842 C 15.678,3.511 12.166,0 7.835,0 L 0,0 z" fill="#fff"/>
        </g>
        <g transform="translate(366.1653,682.941)">
          <path class="petal-o" d="m 0,0 c 3.781,0 6.846,3.065 6.846,6.846 0,3.782 -3.065,6.847 -6.846,6.847 -3.781,0 -6.846,-3.065 -6.846,-6.847 L -6.84,6.555 -6.84,0 -0.016,0 0,0 z" fill="#fba100"/>
        </g>
        <g transform="translate(358.329,681.9445)">
          <path d="m 0,0 -5.339,5.339 -0.203,0.195 c -3.063,3.062 -3.07,8.035 -0.007,11.097 3.062,3.063 8.027,3.063 11.09,0 C 8.603,13.569 8.603,8.603 5.54,5.54 L 0,0 z" fill="#fff"/>
        </g>
        <g transform="translate(363.1658,688.1895)">
          <path class="petal-b" d="m 0,0 c 2.674,2.674 2.674,7.009 0,9.682 -2.674,2.674 -7.009,2.674 -9.682,0 -2.674,-2.673 -2.674,-7.008 0,-9.682 l 0.211,-0.202 4.634,-4.635 4.825,4.826 L 0,0 z" fill="#33aaff"/>
        </g>
        <g transform="translate(358.3293,681.9437)">
          <path d="m 0,0 -7.55,0 -0.282,-0.006 c -4.331,0 -7.852,3.511 -7.852,7.842 0,4.331 3.511,7.842 7.842,7.842 C -3.511,15.678 0,12.166 0,7.835 L 0,0 z" fill="#fff"/>
        </g>
        <g transform="translate(357.3336,689.7797)">
          <path class="petal-b" d="m 0,0 c 0,3.781 -3.065,6.846 -6.846,6.846 -3.782,0 -6.847,-3.065 -6.847,-6.846 0,-3.781 3.065,-6.846 6.847,-6.846 L -6.554,-6.84 0,-6.84 0,-0.016 0,0 z" fill="#33aaff"/>
        </g>
        <g transform="translate(358.3302,681.9434)">
          <path d="m 0,0 -18.928,-0.007 c -10e-4,2.008 0.765,4.016 2.297,5.548 3.062,3.062 8.028,3.062 11.091,-0.001 L 0,0 z" fill="#fff"/>
        </g>
        <g transform="translate(352.0852,686.7802)">
          <path class="petal-b" d="m 0,0 4.837,-4.837 -6.427,0 c -3.481,0 -6.433,-2.268 -7.457,-5.407 -0.22,0.172 -0.433,0.359 -0.635,0.562 -2.674,2.673 -2.674,7.008 0,9.682 2.673,2.674 7.008,2.674 9.682,0" fill="#33aaff"/>
        </g>
        <g transform="translate(352.1013,686.7802)">
          <path class="petal-b" d="m 0,0 3.829,-3.829 -5.147,0 -0.291,-0.006 c -3.135,0 -5.777,2.106 -6.59,4.981 2.608,1.462 5.969,1.084 8.188,-1.134 L 0,0 z" fill="#017dff"/>
        </g>
        <g transform="translate(357.3309,689.7811)">
          <path class="petal-b" d="m 0,0 0,-5.415 -3.639,3.639 -0.211,0.202 C -6.066,0.642 -6.445,4 -4.987,6.607 -2.109,5.797 0,3.153 0,0.016 L 0,0 z" fill="#017dff"/>
        </g>
        <g transform="translate(363.1867,688.1945)">
          <path class="petal-b" d="m 0,0 -3.829,-3.829 0,5.147 -0.006,0.291 c 0,3.135 2.106,5.777 4.98,6.59 C 2.608,5.591 2.23,2.23 0.012,0.011 L 0,0 z" fill="#017dff"/>
        </g>
        <g transform="translate(366.161,682.9554)">
          <path class="petal-y" d="m 0,0 -5.415,0 3.639,3.639 0.202,0.211 C 0.642,6.066 4,6.445 6.607,4.987 5.797,2.109 3.153,0 0.016,0 L 0,0 z" fill="#fde012"/>
        </g>
        <g transform="translate(364.5618,677.1361)">
          <path class="petal-g" d="m 0,0 -3.829,3.829 5.146,0 0.292,0.006 c 3.135,0 5.777,-2.106 6.59,-4.981 C 5.591,-2.608 2.23,-2.23 0.011,-0.012 L 0,0 z" fill="#47b41b"/>
        </g>
        <g transform="translate(359.3424,674.1411)">
          <path class="petal-g" d="M 0,0 0,5.415 3.639,1.776 3.85,1.574 C 6.066,-0.643 6.445,-4 4.987,-6.607 2.11,-5.797 0,-3.153 0,-0.016 L 0,0 z" fill="#47b41b"/>
        </g>
        <g transform="translate(353.5229,675.6953)">
          <path class="petal-g" d="m 0,0 3.829,3.829 0,-5.146 0.006,-0.292 c 0,-3.135 -2.106,-5.777 -4.981,-6.589 -1.462,2.607 -1.084,5.968 1.135,8.187 L 0,0 z" fill="#47b41b"/>
        </g>
        <g transform="translate(350.5186,680.9371)">
          <path class="petal-g" d="M 0,0 5.415,0 1.776,-3.639 1.574,-3.85 C -0.642,-6.066 -4,-6.446 -6.607,-4.987 -5.797,-2.11 -3.153,0 -0.016,0 L 0,0 z" fill="#47b41b"/>
        </g>
      </g>
      <defs>
        <clipPath id="cp">
          <path d="m 339.3,663 131.5,0 0,37.904 -131.5,0 0,-37.904 z"/>
        </clipPath>
      </defs>
    </g>
  </g>
</svg>
